<svg width="56" height="56" xmlns="http://www.w3.org/2000/svg"><g stroke="#FFF" stroke-width="2" fill="none" fill-rule="evenodd"><g opacity=".498" stroke-linejoin="round"><path d="M36.023 48.131c-4.12 2.772-7.71 3.952-8.012 3.955-.298.002-4.034-1.284-8.07-3.982m-8.24-8.967c-1.383-3.132-1.696-6.36-1.696-9.004V17.117a2 2 0 012-2h32a2 2 0 012 2v13.016c0 2.696-.265 5.805-1.702 8.989M16.005 15.081c0-6.616 5.384-12 12-12s12 5.384 12 12" stroke-linecap="round"/><path d="M21.005 15.081c0-3.744 3.141-7 7-7 3.86 0 7 3.256 7 7" stroke-linecap="round"/><path d="M28 18.038l-1.935 2.043 1.935 2 1.967-2zM15 28.038l-1.935 2.043 1.935 2 1.967-2zM41 28.038l-1.935 2.043 1.935 2 1.967-2z"/></g><path stroke-linecap="round" stroke-linejoin="round" d="M30.503 37.488l-14.53-14.754v-3.483l3.437.04 14.717 14.573"/><path d="M36.457 39.99a2 2 0 11-2.828-2.829 2 2 0 012.828 2.829z" stroke-linejoin="round"/><path d="M38.608 35.01l-2.156 2.157m-2.837 2.836L31.45 42.17M36.467 42.828L40.7 47.06a2 2 0 102.828-2.829L39.296 40" stroke-linecap="round"/><path d="M40.695 41.41l-2.837 2.836M42.815 43.531l-2.836 2.836"/><path d="M25.534 37.488l1.593-1.615m4.956-5.023l7.898-8.116V19.32l-3.353-.028-8.117 8.037m-4.91 4.86l-1.69 1.675" stroke-linecap="round" stroke-linejoin="round"/><path d="M19.58 39.99a2 2 0 102.828-2.829 2 2 0 00-2.828 2.829z" stroke-linejoin="round"/><path d="M17.43 35.01l2.155 2.157m2.837 2.836l2.167 2.167M19.57 42.828l-4.233 4.232a2 2 0 11-2.828-2.829L16.742 40" stroke-linecap="round"/><path d="M15.343 41.41l2.836 2.836M13.222 43.53l2.836 2.837"/></g></svg>